<svg width="120" height="120" viewBox="0 0 120 120" fill="none" xmlns="http://www.w3.org/2000/svg">
<path d="M97.5 40V26.5C97.5 22.3579 94.1423 19 90 19H22.5C18.3579 19 15 22.3579 15 26.5V93.5C15 97.6423 18.3579 101 22.5 101H90C94.1423 101 97.5 97.6423 97.5 93.5V80" stroke="white" stroke-width="2" stroke-linejoin="round"/>
<path d="M97.5 42H62.5C58.3579 42 55 45.3579 55 49.5V70.5C55 74.6421 58.3579 78 62.5 78H97.5C101.642 78 105 74.6421 105 70.5V49.5C105 45.3579 101.642 42 97.5 42Z" stroke="white" stroke-width="2" stroke-linejoin="round"/>
<path d="M70 60C70 57.2386 72.2386 55 75 55C77.7614 55 80 57.2386 80 60C80 62.7614 77.7614 65 75 65C72.2386 65 70 62.7614 70 60Z" fill="white"/>
</svg>
